<?xml version="1.0" standalone="no"?>
<svg viewBox="0.0 0.0 1133.0 1280.5999755859375" style="background-color:#4A5963" version="1.1" xmlns="http://www.w3.org/2000/svg" xmlns:xlink="http://www.w3.org/1999/xlink" xml:space="preserve" x="79.0px" y="79.0px" width="975.0" height="1122.5999755859375">
<g transform="matrix(1.0, 0.0, 0.0, 1.0, 0.0, 0.0)"/>
<g transform="matrix(1.0, 0.0, 0.0, 1.0, 0.0, 0.0)"><path d="M 229.0,682.0499877929688 L 229.0,682.0499877929688 C 313.0,682.0499877929688 355.0,217.04998779296875 439.0,217.04998779296875 L 570.0,217.04998779296875 " stroke="#E89969" fill="none" stroke-width="6.0" stroke-dasharray="" stroke-dashoffset="0.0" stroke-linecap="round"/></g>
<g transform="matrix(1.0, 0.0, 0.0, 1.0, 0.0, 0.0)"><path d="M 229.0,682.0499877929688 L 229.0,682.0499877929688 C 313.0,682.0499877929688 355.0,1147.0499877929688 439.0,1147.0499877929688 L 705.0,1147.0499877929688 " stroke="#E0696E" fill="none" stroke-width="6.0" stroke-dasharray="" stroke-dashoffset="0.0" stroke-linecap="round"/></g>
<g transform="matrix(1.0, 0.0, 0.0, 1.0, 0.0, 0.0)"><path d="M 229.0,682.0499877929688 L 229.0,682.0499877929688 C 313.0,682.0499877929688 355.0,951.0499877929688 439.0,951.0499877929688 L 580.0,951.0499877929688 " stroke="#F7D159" fill="none" stroke-width="6.0" stroke-dasharray="" stroke-dashoffset="0.0" stroke-linecap="round"/></g>
<g transform="matrix(1.0, 0.0, 0.0, 1.0, 0.0, 0.0)"><path d="M 229.0,682.0499877929688 L 229.0,682.0499877929688 C 313.0,682.0499877929688 355.0,421.04998779296875 439.0,421.04998779296875 L 721.0,421.04998779296875 " stroke="#8FC2E8" fill="none" stroke-width="6.0" stroke-dasharray="" stroke-dashoffset="0.0" stroke-linecap="round"/></g>
<g transform="matrix(1.0, 0.0, 0.0, 1.0, 0.0, 0.0)"><path d="M 229.0,682.0499877929688 L 229.0,682.0499877929688 C 313.0,682.0499877929688 355.0,673.0499877929688 439.0,673.0499877929688 L 607.0,673.0499877929688 " stroke="#915C9E" fill="none" stroke-width="6.0" stroke-dasharray="" stroke-dashoffset="0.0" stroke-linecap="round"/></g>
<g transform="matrix(1.0, 0.0, 0.0, 1.0, 0.0, 0.0)"><path d="M 607.0,673.0499877929688 L 607.0,673.0499877929688 C 631.0,673.0499877929688 643.0,537.0499877929688 667.0,537.0499877929688 L 904.0,537.0499877929688 " stroke="#915C9E" fill="none" stroke-width="5.0" stroke-dasharray="" stroke-dashoffset="0.0" stroke-linecap="round"/></g>
<g transform="matrix(1.0, 0.0, 0.0, 1.0, 0.0, 0.0)"><path d="M 607.0,673.0499877929688 L 607.0,673.0499877929688 C 631.0,673.0499877929688 643.0,810.0499877929688 667.0,810.0499877929688 L 967.0,810.0499877929688 " stroke="#915C9E" fill="none" stroke-width="5.0" stroke-dasharray="" stroke-dashoffset="0.0" stroke-linecap="round"/></g>
<g transform="matrix(1.0, 0.0, 0.0, 1.0, 0.0, 0.0)"><path d="M 570.0,217.04998779296875 L 570.0,217.04998779296875 C 594.0,217.04998779296875 606.0,129.04998779296875 630.0,129.04998779296875 L 892.0,129.04998779296875 " stroke="#E89969" fill="none" stroke-width="5.0" stroke-dasharray="" stroke-dashoffset="0.0" stroke-linecap="round"/></g>
<g transform="matrix(1.0, 0.0, 0.0, 1.0, 0.0, 0.0)"><path d="M 570.0,217.04998779296875 L 570.0,217.04998779296875 C 594.0,217.04998779296875 606.0,305.04998779296875 630.0,305.04998779296875 L 892.0,305.04998779296875 " stroke="#E89969" fill="none" stroke-width="5.0" stroke-dasharray="" stroke-dashoffset="0.0" stroke-linecap="round"/></g>
<g transform="matrix(1.0, 0.0, 0.0, 1.0, 0.0, 0.0)"><path d="M 580.0,951.0499877929688 L 580.0,951.0499877929688 C 604.0,951.0499877929688 616.0,863.0499877929688 640.0,863.0499877929688 L 787.0,863.0499877929688 " stroke="#F7D159" fill="none" stroke-width="5.0" stroke-dasharray="" stroke-dashoffset="0.0" stroke-linecap="round"/></g>
<g transform="matrix(1.0, 0.0, 0.0, 1.0, 0.0, 0.0)"><path d="M 580.0,951.0499877929688 L 580.0,951.0499877929688 C 604.0,951.0499877929688 616.0,1039.0499877929688 640.0,1039.0499877929688 L 937.0,1039.0499877929688 " stroke="#F7D159" fill="none" stroke-width="5.0" stroke-dasharray="" stroke-dashoffset="0.0" stroke-linecap="round"/></g>
<g transform="matrix(1.0, 0.0, 0.0, 1.0, 0.0, 0.0)"><path d="M 607.0,673.0499877929688 L 607.0,673.0499877929688 C 631.0,673.0499877929688 643.0,588.0499877929688 667.0,588.0499877929688 L 906.0,588.0499877929688 " stroke="#915C9E" fill="none" stroke-width="5.0" stroke-dasharray="" stroke-dashoffset="0.0" stroke-linecap="round"/></g>
<g transform="matrix(1.0, 0.0, 0.0, 1.0, 0.0, 0.0)"><path d="M 721.0,421.04998779296875 L 721.0,421.04998779296875 C 745.0,421.04998779296875 757.0,358.04998779296875 781.0,358.04998779296875 L 908.0,358.04998779296875 " stroke="#8FC2E8" fill="none" stroke-width="5.0" stroke-dasharray="" stroke-dashoffset="0.0" stroke-linecap="round"/></g>
<g transform="matrix(1.0, 0.0, 0.0, 1.0, 0.0, 0.0)"><path d="M 721.0,421.04998779296875 L 721.0,421.04998779296875 C 745.0,421.04998779296875 757.0,483.04998779296875 781.0,483.04998779296875 L 1054.0,483.04998779296875 " stroke="#8FC2E8" fill="none" stroke-width="5.0" stroke-dasharray="" stroke-dashoffset="0.0" stroke-linecap="round"/></g>
<g transform="matrix(1.0, 0.0, 0.0, 1.0, 0.0, 0.0)"><path d="M 705.0,1147.0499877929688 L 705.0,1147.0499877929688 C 729.0,1147.0499877929688 741.0,1093.0499877929688 765.0,1093.0499877929688 L 955.0,1093.0499877929688 " stroke="#E0696E" fill="none" stroke-width="5.0" stroke-dasharray="" stroke-dashoffset="0.0" stroke-linecap="round"/></g>
<g transform="matrix(1.0, 0.0, 0.0, 1.0, 0.0, 0.0)"><path d="M 705.0,1147.0499877929688 L 705.0,1147.0499877929688 C 729.0,1147.0499877929688 741.0,1202.0499877929688 765.0,1202.0499877929688 L 921.0,1202.0499877929688 " stroke="#E0696E" fill="none" stroke-width="5.0" stroke-dasharray="" stroke-dashoffset="0.0" stroke-linecap="round"/></g>
<g transform="matrix(1.0, 0.0, 0.0, 1.0, 0.0, 0.0)"><path d="M 607.0,673.0499877929688 L 607.0,673.0499877929688 C 631.0,673.0499877929688 643.0,713.0499877929688 667.0,713.0499877929688 L 954.0,713.0499877929688 " stroke="#915C9E" fill="none" stroke-width="5.0" stroke-dasharray="" stroke-dashoffset="0.0" stroke-linecap="round"/></g>
<g transform="matrix(1.0, 0.0, 0.0, 1.0, 0.0, 0.0)"><path d="M 570.0,217.04998779296875 L 570.0,217.04998779296875 C 594.0,217.04998779296875 606.0,180.04998779296875 630.0,180.04998779296875 L 919.0,180.04998779296875 " stroke="#E89969" fill="none" stroke-width="5.0" stroke-dasharray="" stroke-dashoffset="0.0" stroke-linecap="round"/></g>
<g transform="matrix(1.0, 0.0, 0.0, 1.0, 0.0, 0.0)"><path d="M 607.0,673.0499877929688 L 607.0,673.0499877929688 C 631.0,673.0499877929688 643.0,639.0499877929688 667.0,639.0499877929688 L 907.0,639.0499877929688 " stroke="#915C9E" fill="none" stroke-width="5.0" stroke-dasharray="" stroke-dashoffset="0.0" stroke-linecap="round"/></g>
<g transform="matrix(1.0, 0.0, 0.0, 1.0, 0.0, 0.0)"><path d="M 570.0,217.04998779296875 L 570.0,217.04998779296875 C 594.0,217.04998779296875 606.0,231.04998779296875 630.0,231.04998779296875 L 904.0,231.04998779296875 " stroke="#E89969" fill="none" stroke-width="5.0" stroke-dasharray="" stroke-dashoffset="0.0" stroke-linecap="round"/></g>
<g transform="matrix(1.0, 0.0, 0.0, 1.0, 0.0, 0.0)"><path d="M 721.0,421.04998779296875 L 721.0,421.04998779296875 C 745.0,421.04998779296875 757.0,409.04998779296875 781.0,409.04998779296875 L 948.0,409.04998779296875 " stroke="#8FC2E8" fill="none" stroke-width="5.0" stroke-dasharray="" stroke-dashoffset="0.0" stroke-linecap="round"/></g>
<g transform="matrix(1.0, 0.0, 0.0, 1.0, 0.0, 0.0)"><path d="M 705.0,1147.0499877929688 L 705.0,1147.0499877929688 C 729.0,1147.0499877929688 741.0,1151.0499877929688 765.0,1151.0499877929688 L 1035.0,1151.0499877929688 " stroke="#E0696E" fill="none" stroke-width="5.0" stroke-dasharray="" stroke-dashoffset="0.0" stroke-linecap="round"/></g>
<g transform="matrix(1.0, 0.0, 0.0, 1.0, 0.0, 0.0)"><path d="M 580.0,951.0499877929688 L 580.0,951.0499877929688 C 604.0,951.0499877929688 616.0,951.0499877929688 640.0,951.0499877929688 L 938.0,951.0499877929688 " stroke="#F7D159" fill="none" stroke-width="5.0" stroke-dasharray="" stroke-dashoffset="0.0" stroke-linecap="round"/></g>
<g transform="matrix(1.0, 0.0, 0.0, 1.0, 0.0, 0.0)"><path d="M 379.0,682.0499877929688 L 379.0,714.0499877929688 C 379.0,719.5728352909688 374.522847498,724.0499877929688 369.0,724.0499877929688 L 89.0,724.0499877929688 C 83.477152502,724.0499877929688 79.0,719.5728352909688 79.0,714.0499877929688 L 79.0,650.0499877929688 C 79.0,644.5271402949687 83.47715250200001,640.0499877929688 89.0,640.0499877929688 L 369.0,640.0499877929688 C 374.522847498,640.0499877929688 379.0,644.5271402949687 379.0,650.0499877929688 Z " stroke="none" fill="#F2F2F5"/><path d="M 379.0,682.0499877929688 L 379.0,714.0499877929688 C 379.0,719.5728352909688 374.522847498,724.0499877929688 369.0,724.0499877929688 L 89.0,724.0499877929688 C 83.477152502,724.0499877929688 79.0,719.5728352909688 79.0,714.0499877929688 L 79.0,650.0499877929688 C 79.0,644.5271402949687 83.47715250200001,640.0499877929688 89.0,640.0499877929688 L 369.0,640.0499877929688 C 374.522847498,640.0499877929688 379.0,644.5271402949687 379.0,650.0499877929688 Z " stroke="#F2F2F5" fill="none" stroke-width="7.0" stroke-dasharray="" stroke-dashoffset="0.0" stroke-linecap="round" stroke-linejoin="round"/></g>
<g transform="matrix(1.0, 0.0, 0.0, 1.0, 0.0, 0.0)"><g transform="translate(98.0 676.1304565429688)"><text fill="#4B4B4B" x="5.2421875" y="0.0" font-family="Helvetica" font-size="24.0">Publicly Verifiable Voting </text><text fill="#4B4B4B" x="95.9921875" y="27.6" font-family="Helvetica" font-size="24.0">System</text></g></g>
<g transform="matrix(1.0, 0.0, 0.0, 1.0, 0.0, 0.0)"><g transform="translate(446.0 210.45037841796875)"><text fill="#F3F3F3" x="5.0" y="0.0" font-family="Helvetica" font-size="20.0">1. Voter Flow</text></g></g>
<g transform="matrix(1.0, 0.0, 0.0, 1.0, 0.0, 0.0)"><g transform="translate(637.0 99.45037841796875)"><text fill="#F3F3F3" x="5.0" y="0.0" font-family="Helvetica" font-size="20.0">Voter App (Untrusted Client </text><text fill="#F3F3F3" x="5.0" y="23.0" font-family="Helvetica" font-size="20.0">Environment)</text></g></g>
<g transform="matrix(1.0, 0.0, 0.0, 1.0, 0.0, 0.0)"><g transform="translate(637.0 173.45037841796875)"><text fill="#F3F3F3" x="5.0" y="0.0" font-family="Helvetica" font-size="20.0">Public Key Distributed to Client</text></g></g>
<g transform="matrix(1.0, 0.0, 0.0, 1.0, 0.0, 0.0)"><g transform="translate(637.0 224.45037841796875)"><text fill="#F3F3F3" x="5.0" y="0.0" font-family="Helvetica" font-size="20.0">Encrypted Ballot (Public Key)</text></g></g>
<g transform="matrix(1.0, 0.0, 0.0, 1.0, 0.0, 0.0)"><g transform="translate(637.0 275.45037841796875)"><text fill="#F3F3F3" x="5.0" y="0.0" font-family="Helvetica" font-size="20.0">Protected Ingress (Network </text><text fill="#F3F3F3" x="5.0" y="23.0" font-family="Helvetica" font-size="20.0">Layer)</text></g></g>
<g transform="matrix(1.0, 0.0, 0.0, 1.0, 0.0, 0.0)"><g transform="translate(446.0 414.45037841796875)"><text fill="#F3F3F3" x="5.0" y="0.0" font-family="Helvetica" font-size="20.0">2. Block-Sealed Public Ledger</text></g></g>
<g transform="matrix(1.0, 0.0, 0.0, 1.0, 0.0, 0.0)"><g transform="translate(788.0 351.45037841796875)"><text fill="#F3F3F3" x="5.0" y="0.0" font-family="Helvetica" font-size="20.0">Append-only</text></g></g>
<g transform="matrix(1.0, 0.0, 0.0, 1.0, 0.0, 0.0)"><g transform="translate(788.0 402.45037841796875)"><text fill="#F3F3F3" x="5.0" y="0.0" font-family="Helvetica" font-size="20.0">Publicly readable</text></g></g>
<g transform="matrix(1.0, 0.0, 0.0, 1.0, 0.0, 0.0)"><g transform="translate(788.0 453.45037841796875)"><text fill="#F3F3F3" x="5.0" y="0.0" font-family="Helvetica" font-size="20.0">Contains encrypted ballots + </text><text fill="#F3F3F3" x="5.0" y="23.0" font-family="Helvetica" font-size="20.0">hashes</text></g></g>
<g transform="matrix(1.0, 0.0, 0.0, 1.0, 0.0, 0.0)"><g transform="translate(446.0 666.4503784179688)"><text fill="#F3F3F3" x="5.0" y="0.0" font-family="Helvetica" font-size="20.0">3. Tally &amp; Results</text></g></g>
<g transform="matrix(1.0, 0.0, 0.0, 1.0, 0.0, 0.0)"><g transform="translate(674.0 530.4503784179688)"><text fill="#F3F3F3" x="5.0" y="0.0" font-family="Helvetica" font-size="20.0">Tally Node A (Key Share)</text></g></g>
<g transform="matrix(1.0, 0.0, 0.0, 1.0, 0.0, 0.0)"><g transform="translate(674.0 581.4503784179688)"><text fill="#F3F3F3" x="5.0" y="0.0" font-family="Helvetica" font-size="20.0">Tally Node B (Key Share)</text></g></g>
<g transform="matrix(1.0, 0.0, 0.0, 1.0, 0.0, 0.0)"><g transform="translate(674.0 632.4503784179688)"><text fill="#F3F3F3" x="5.0" y="0.0" font-family="Helvetica" font-size="20.0">Tally Node C (Key Share)</text></g></g>
<g transform="matrix(1.0, 0.0, 0.0, 1.0, 0.0, 0.0)"><g transform="translate(674.0 683.4503784179688)"><text fill="#F3F3F3" x="5.0" y="0.0" font-family="Helvetica" font-size="20.0">Distributed Private Key Shares
</text><text fill="#F3F3F3" x="5.0" y="23.0" font-family="Helvetica" font-size="20.0">(Threshold Decryption)</text></g></g>
<g transform="matrix(1.0, 0.0, 0.0, 1.0, 0.0, 0.0)"><g transform="translate(674.0 757.4503784179688)"><text fill="#F3F3F3" x="5.0" y="0.0" font-family="Helvetica" font-size="20.0">Final Results + Public Verifiable </text><text fill="#F3F3F3" x="5.0" y="23.0" font-family="Helvetica" font-size="20.0">Proof (Deterministic from </text><text fill="#F3F3F3" x="5.0" y="46.0" font-family="Helvetica" font-size="20.0">Ledger)</text></g></g>
<g transform="matrix(1.0, 0.0, 0.0, 1.0, 0.0, 0.0)"><g transform="translate(446.0 944.4503784179688)"><text fill="#F3F3F3" x="5.0" y="0.0" font-family="Helvetica" font-size="20.0">4. Public Audit</text></g></g>
<g transform="matrix(1.0, 0.0, 0.0, 1.0, 0.0, 0.0)"><g transform="translate(647.0 856.4503784179688)"><text fill="#F3F3F3" x="5.0" y="0.0" font-family="Helvetica" font-size="20.0">Public Auditors</text></g></g>
<g transform="matrix(1.0, 0.0, 0.0, 1.0, 0.0, 0.0)"><g transform="translate(647.0 914.0499877929688)"><text fill="#F3F3F3" x="5.0" y="0.0" font-family="HiraginoSans-W3" font-size="20.0">Independent read access to </text><text fill="#F3F3F3" x="5.0" y="30.0" font-family="HiraginoSans-W3" font-size="20.0">ledger</text></g></g>
<g transform="matrix(1.0, 0.0, 0.0, 1.0, 0.0, 0.0)"><g transform="translate(647.0 1002.0499877929688)"><text fill="#F3F3F3" x="5.0" y="0.0" font-family="HiraginoSans-W3" font-size="20.0">Independent recomputation </text><text fill="#F3F3F3" x="5.0" y="30.0" font-family="HiraginoSans-W3" font-size="20.0">of tally</text></g></g>
<g transform="matrix(1.0, 0.0, 0.0, 1.0, 0.0, 0.0)"><g transform="translate(446.0 1117.4503784179688)"><text fill="#F3F3F3" x="5.0" y="0.0" font-family="Helvetica" font-size="20.0">5. Private Ballot Verification
</text><text fill="#F3F3F3" x="5.0" y="23.0" font-family="Helvetica" font-size="20.0">(User-Initiated, Time-limited)</text></g></g>
<g transform="matrix(1.0, 0.0, 0.0, 1.0, 0.0, 0.0)"><g transform="translate(772.0 1086.4503784179688)"><text fill="#F3F3F3" x="5.0" y="0.0" font-family="Helvetica" font-size="20.0">Time-limited access</text></g></g>
<g transform="matrix(1.0, 0.0, 0.0, 1.0, 0.0, 0.0)"><g transform="translate(772.0 1144.0499877929688)"><text fill="#F3F3F3" x="5.0" y="0.0" font-family="HiraginoSans-W3" font-size="20.0">Voter retrieves own ballot</text></g></g>
<g transform="matrix(1.0, 0.0, 0.0, 1.0, 0.0, 0.0)"><g transform="translate(772.0 1195.4503784179688)"><text fill="#F3F3F3" x="5.0" y="0.0" font-family="Helvetica" font-size="20.0">Decrypt &amp; verify</text></g></g>
<g transform="matrix(1.0, 0.0, 0.0, 1.0, 0.0, 0.0)"/>
</svg>
