<?xml version="1.0" standalone="no"?>
<svg viewBox="0.0 0.0 1870.0 2138.0" style="background-color:#4A5963" version="1.1" xmlns="http://www.w3.org/2000/svg" xmlns:xlink="http://www.w3.org/1999/xlink" xml:space="preserve" x="130.0px" y="130.0px" width="1610.0" height="1878.0">
<g transform="matrix(1.0, 0.0, 0.0, 1.0, 0.0, 0.0)"/>
<g transform="matrix(1.0, 0.0, 0.0, 1.0, 0.0, 0.0)"><path d="M 351.0,1116.125 L 351.0,1116.125 C 463.0,1116.125 520.0,284.125 632.0,284.125 L 700.0,284.125 " stroke="#E89969" fill="none" stroke-width="6.0" stroke-dasharray="" stroke-dashoffset="0.0" stroke-linecap="round"/></g>
<g transform="matrix(1.0, 0.0, 0.0, 1.0, 0.0, 0.0)"><path d="M 351.0,1116.125 L 351.0,1116.125 C 463.0,1116.125 520.0,1947.125 632.0,1947.125 L 802.0,1947.125 " stroke="#80C7C9" fill="none" stroke-width="6.0" stroke-dasharray="" stroke-dashoffset="0.0" stroke-linecap="round"/></g>
<g transform="matrix(1.0, 0.0, 0.0, 1.0, 0.0, 0.0)"><path d="M 351.0,1116.125 L 351.0,1116.125 C 463.0,1116.125 520.0,1693.125 632.0,1693.125 L 793.0,1693.125 " stroke="#E0696E" fill="none" stroke-width="6.0" stroke-dasharray="" stroke-dashoffset="0.0" stroke-linecap="round"/></g>
<g transform="matrix(1.0, 0.0, 0.0, 1.0, 0.0, 0.0)"><path d="M 351.0,1116.125 L 351.0,1116.125 C 463.0,1116.125 520.0,613.125 632.0,613.125 L 833.0,613.125 " stroke="#8FC2E8" fill="none" stroke-width="6.0" stroke-dasharray="" stroke-dashoffset="0.0" stroke-linecap="round"/></g>
<g transform="matrix(1.0, 0.0, 0.0, 1.0, 0.0, 0.0)"><path d="M 351.0,1116.125 L 351.0,1116.125 C 463.0,1116.125 520.0,1376.125 632.0,1376.125 L 779.0,1376.125 " stroke="#F7D159" fill="none" stroke-width="6.0" stroke-dasharray="" stroke-dashoffset="0.0" stroke-linecap="round"/></g>
<g transform="matrix(1.0, 0.0, 0.0, 1.0, 0.0, 0.0)"><path d="M 351.0,1116.125 L 351.0,1116.125 C 463.0,1116.125 520.0,871.125 632.0,871.125 L 882.0,871.125 " stroke="#915C9E" fill="none" stroke-width="6.0" stroke-dasharray="" stroke-dashoffset="0.0" stroke-linecap="round"/></g>
<g transform="matrix(1.0, 0.0, 0.0, 1.0, 0.0, 0.0)"><path d="M 779.0,1376.125 L 779.0,1376.125 C 803.0,1376.125 815.0,1225.125 839.0,1225.125 L 1123.0,1225.125 " stroke="#F7D159" fill="none" stroke-width="5.0" stroke-dasharray="" stroke-dashoffset="0.0" stroke-linecap="round"/></g>
<g transform="matrix(1.0, 0.0, 0.0, 1.0, 0.0, 0.0)"><path d="M 779.0,1376.125 L 779.0,1376.125 C 803.0,1376.125 815.0,1526.125 839.0,1526.125 L 1052.0,1526.125 " stroke="#F7D159" fill="none" stroke-width="5.0" stroke-dasharray="" stroke-dashoffset="0.0" stroke-linecap="round"/></g>
<g transform="matrix(1.0, 0.0, 0.0, 1.0, 0.0, 0.0)"><path d="M 700.0,284.125 L 700.0,284.125 C 724.0,284.125 736.0,157.125 760.0,157.125 L 952.0,157.125 " stroke="#E89969" fill="none" stroke-width="5.0" stroke-dasharray="" stroke-dashoffset="0.0" stroke-linecap="round"/></g>
<g transform="matrix(1.0, 0.0, 0.0, 1.0, 0.0, 0.0)"><path d="M 700.0,284.125 L 700.0,284.125 C 724.0,284.125 736.0,412.125 760.0,412.125 L 944.0,412.125 " stroke="#E89969" fill="none" stroke-width="5.0" stroke-dasharray="" stroke-dashoffset="0.0" stroke-linecap="round"/></g>
<g transform="matrix(1.0, 0.0, 0.0, 1.0, 0.0, 0.0)"><path d="M 833.0,613.125 L 833.0,613.125 C 857.0,613.125 869.0,488.125 893.0,488.125 L 1192.0,488.125 " stroke="#8FC2E8" fill="none" stroke-width="5.0" stroke-dasharray="" stroke-dashoffset="0.0" stroke-linecap="round"/></g>
<g transform="matrix(1.0, 0.0, 0.0, 1.0, 0.0, 0.0)"><path d="M 833.0,613.125 L 833.0,613.125 C 857.0,613.125 869.0,738.125 893.0,738.125 L 1193.0,738.125 " stroke="#8FC2E8" fill="none" stroke-width="5.0" stroke-dasharray="" stroke-dashoffset="0.0" stroke-linecap="round"/></g>
<g transform="matrix(1.0, 0.0, 0.0, 1.0, 0.0, 0.0)"><path d="M 1438.0,1058.125 L 1438.0,1058.125 C 1462.0,1058.125 1474.0,945.125 1498.0,945.125 L 1740.0,945.125 " stroke="#915C9E" fill="none" stroke-width="3.0" stroke-dasharray="" stroke-dashoffset="0.0" stroke-linecap="round"/></g>
<g transform="matrix(1.0, 0.0, 0.0, 1.0, 0.0, 0.0)"><path d="M 1438.0,1058.125 L 1438.0,1058.125 C 1462.0,1058.125 1474.0,1172.125 1498.0,1172.125 L 1708.0,1172.125 " stroke="#915C9E" fill="none" stroke-width="3.0" stroke-dasharray="" stroke-dashoffset="0.0" stroke-linecap="round"/></g>
<g transform="matrix(1.0, 0.0, 0.0, 1.0, 0.0, 0.0)"><path d="M 793.0,1693.125 L 793.0,1693.125 C 817.0,1693.125 829.0,1579.125 853.0,1579.125 L 1121.0,1579.125 " stroke="#E0696E" fill="none" stroke-width="5.0" stroke-dasharray="" stroke-dashoffset="0.0" stroke-linecap="round"/></g>
<g transform="matrix(1.0, 0.0, 0.0, 1.0, 0.0, 0.0)"><path d="M 793.0,1693.125 L 793.0,1693.125 C 817.0,1693.125 829.0,1806.125 853.0,1806.125 L 1142.0,1806.125 " stroke="#E0696E" fill="none" stroke-width="5.0" stroke-dasharray="" stroke-dashoffset="0.0" stroke-linecap="round"/></g>
<g transform="matrix(1.0, 0.0, 0.0, 1.0, 0.0, 0.0)"><path d="M 1227.0,950.125 L 1227.0,950.125 C 1251.0,950.125 1263.0,843.125 1287.0,843.125 L 1552.0,843.125 " stroke="#915C9E" fill="none" stroke-width="4.0" stroke-dasharray="" stroke-dashoffset="0.0" stroke-linecap="round"/></g>
<g transform="matrix(1.0, 0.0, 0.0, 1.0, 0.0, 0.0)"><path d="M 1227.0,950.125 L 1227.0,950.125 C 1251.0,950.125 1263.0,1058.125 1287.0,1058.125 L 1438.0,1058.125 " stroke="#915C9E" fill="none" stroke-width="4.0" stroke-dasharray="" stroke-dashoffset="0.0" stroke-linecap="round"/></g>
<g transform="matrix(1.0, 0.0, 0.0, 1.0, 0.0, 0.0)"><path d="M 779.0,1376.125 L 779.0,1376.125 C 803.0,1376.125 815.0,1475.125 839.0,1475.125 L 992.0,1475.125 " stroke="#F7D159" fill="none" stroke-width="5.0" stroke-dasharray="" stroke-dashoffset="0.0" stroke-linecap="round"/></g>
<g transform="matrix(1.0, 0.0, 0.0, 1.0, 0.0, 0.0)"><path d="M 882.0,871.125 L 882.0,871.125 C 906.0,871.125 918.0,792.125 942.0,792.125 L 1217.0,792.125 " stroke="#915C9E" fill="none" stroke-width="5.0" stroke-dasharray="" stroke-dashoffset="0.0" stroke-linecap="round"/></g>
<g transform="matrix(1.0, 0.0, 0.0, 1.0, 0.0, 0.0)"><path d="M 882.0,871.125 L 882.0,871.125 C 906.0,871.125 918.0,950.125 942.0,950.125 L 1227.0,950.125 " stroke="#915C9E" fill="none" stroke-width="5.0" stroke-dasharray="" stroke-dashoffset="0.0" stroke-linecap="round"/></g>
<g transform="matrix(1.0, 0.0, 0.0, 1.0, 0.0, 0.0)"><path d="M 700.0,284.125 L 700.0,284.125 C 724.0,284.125 736.0,208.125 760.0,208.125 L 969.0,208.125 " stroke="#E89969" fill="none" stroke-width="5.0" stroke-dasharray="" stroke-dashoffset="0.0" stroke-linecap="round"/></g>
<g transform="matrix(1.0, 0.0, 0.0, 1.0, 0.0, 0.0)"><path d="M 700.0,284.125 L 700.0,284.125 C 724.0,284.125 736.0,361.125 760.0,361.125 L 988.0,361.125 " stroke="#E89969" fill="none" stroke-width="5.0" stroke-dasharray="" stroke-dashoffset="0.0" stroke-linecap="round"/></g>
<g transform="matrix(1.0, 0.0, 0.0, 1.0, 0.0, 0.0)"><path d="M 779.0,1376.125 L 779.0,1376.125 C 803.0,1376.125 815.0,1299.125 839.0,1299.125 L 1108.0,1299.125 " stroke="#F7D159" fill="none" stroke-width="5.0" stroke-dasharray="" stroke-dashoffset="0.0" stroke-linecap="round"/></g>
<g transform="matrix(1.0, 0.0, 0.0, 1.0, 0.0, 0.0)"><path d="M 1438.0,1058.125 L 1438.0,1058.125 C 1462.0,1058.125 1474.0,996.125 1498.0,996.125 L 1685.0,996.125 " stroke="#915C9E" fill="none" stroke-width="3.0" stroke-dasharray="" stroke-dashoffset="0.0" stroke-linecap="round"/></g>
<g transform="matrix(1.0, 0.0, 0.0, 1.0, 0.0, 0.0)"><path d="M 793.0,1693.125 L 793.0,1693.125 C 817.0,1693.125 829.0,1630.125 853.0,1630.125 L 1103.0,1630.125 " stroke="#E0696E" fill="none" stroke-width="5.0" stroke-dasharray="" stroke-dashoffset="0.0" stroke-linecap="round"/></g>
<g transform="matrix(1.0, 0.0, 0.0, 1.0, 0.0, 0.0)"><path d="M 793.0,1693.125 L 793.0,1693.125 C 817.0,1693.125 829.0,1755.125 853.0,1755.125 L 1063.0,1755.125 " stroke="#E0696E" fill="none" stroke-width="5.0" stroke-dasharray="" stroke-dashoffset="0.0" stroke-linecap="round"/></g>
<g transform="matrix(1.0, 0.0, 0.0, 1.0, 0.0, 0.0)"><path d="M 802.0,1947.125 L 802.0,1947.125 C 826.0,1947.125 838.0,1885.125 862.0,1885.125 L 1054.0,1885.125 " stroke="#80C7C9" fill="none" stroke-width="5.0" stroke-dasharray="" stroke-dashoffset="0.0" stroke-linecap="round"/></g>
<g transform="matrix(1.0, 0.0, 0.0, 1.0, 0.0, 0.0)"><path d="M 802.0,1947.125 L 802.0,1947.125 C 826.0,1947.125 838.0,2008.125 862.0,2008.125 L 1097.0,2008.125 " stroke="#80C7C9" fill="none" stroke-width="5.0" stroke-dasharray="" stroke-dashoffset="0.0" stroke-linecap="round"/></g>
<g transform="matrix(1.0, 0.0, 0.0, 1.0, 0.0, 0.0)"><path d="M 1227.0,950.125 L 1227.0,950.125 C 1251.0,950.125 1263.0,894.125 1287.0,894.125 L 1513.0,894.125 " stroke="#915C9E" fill="none" stroke-width="4.0" stroke-dasharray="" stroke-dashoffset="0.0" stroke-linecap="round"/></g>
<g transform="matrix(1.0, 0.0, 0.0, 1.0, 0.0, 0.0)"><path d="M 833.0,613.125 L 833.0,613.125 C 857.0,613.125 869.0,562.125 893.0,562.125 L 1192.0,562.125 " stroke="#8FC2E8" fill="none" stroke-width="5.0" stroke-dasharray="" stroke-dashoffset="0.0" stroke-linecap="round"/></g>
<g transform="matrix(1.0, 0.0, 0.0, 1.0, 0.0, 0.0)"><path d="M 833.0,613.125 L 833.0,613.125 C 857.0,613.125 869.0,664.125 893.0,664.125 L 1159.0,664.125 " stroke="#8FC2E8" fill="none" stroke-width="5.0" stroke-dasharray="" stroke-dashoffset="0.0" stroke-linecap="round"/></g>
<g transform="matrix(1.0, 0.0, 0.0, 1.0, 0.0, 0.0)"><path d="M 779.0,1376.125 L 779.0,1376.125 C 803.0,1376.125 815.0,1424.125 839.0,1424.125 L 1131.0,1424.125 " stroke="#F7D159" fill="none" stroke-width="5.0" stroke-dasharray="" stroke-dashoffset="0.0" stroke-linecap="round"/></g>
<g transform="matrix(1.0, 0.0, 0.0, 1.0, 0.0, 0.0)"><path d="M 1438.0,1058.125 L 1438.0,1058.125 C 1462.0,1058.125 1474.0,1098.125 1498.0,1098.125 L 1633.0,1098.125 " stroke="#915C9E" fill="none" stroke-width="3.0" stroke-dasharray="" stroke-dashoffset="0.0" stroke-linecap="round"/></g>
<g transform="matrix(1.0, 0.0, 0.0, 1.0, 0.0, 0.0)"><path d="M 700.0,284.125 L 700.0,284.125 C 724.0,284.125 736.0,259.125 760.0,259.125 L 1029.0,259.125 " stroke="#E89969" fill="none" stroke-width="5.0" stroke-dasharray="" stroke-dashoffset="0.0" stroke-linecap="round"/></g>
<g transform="matrix(1.0, 0.0, 0.0, 1.0, 0.0, 0.0)"><path d="M 700.0,284.125 L 700.0,284.125 C 724.0,284.125 736.0,310.125 760.0,310.125 L 917.0,310.125 " stroke="#E89969" fill="none" stroke-width="5.0" stroke-dasharray="" stroke-dashoffset="0.0" stroke-linecap="round"/></g>
<g transform="matrix(1.0, 0.0, 0.0, 1.0, 0.0, 0.0)"><path d="M 779.0,1376.125 L 779.0,1376.125 C 803.0,1376.125 815.0,1350.125 839.0,1350.125 L 1118.0,1350.125 " stroke="#F7D159" fill="none" stroke-width="5.0" stroke-dasharray="" stroke-dashoffset="0.0" stroke-linecap="round"/></g>
<g transform="matrix(1.0, 0.0, 0.0, 1.0, 0.0, 0.0)"><path d="M 1054.0,1885.125 L 1054.0,1885.125 C 1078.0,1885.125 1090.0,1860.125 1114.0,1860.125 L 1354.0,1860.125 " stroke="#80C7C9" fill="none" stroke-width="4.0" stroke-dasharray="" stroke-dashoffset="0.0" stroke-linecap="round"/></g>
<g transform="matrix(1.0, 0.0, 0.0, 1.0, 0.0, 0.0)"><path d="M 1054.0,1885.125 L 1054.0,1885.125 C 1078.0,1885.125 1090.0,1911.125 1114.0,1911.125 L 1344.0,1911.125 " stroke="#80C7C9" fill="none" stroke-width="4.0" stroke-dasharray="" stroke-dashoffset="0.0" stroke-linecap="round"/></g>
<g transform="matrix(1.0, 0.0, 0.0, 1.0, 0.0, 0.0)"><path d="M 1438.0,1058.125 L 1438.0,1058.125 C 1462.0,1058.125 1474.0,1047.125 1498.0,1047.125 L 1677.0,1047.125 " stroke="#915C9E" fill="none" stroke-width="3.0" stroke-dasharray="" stroke-dashoffset="0.0" stroke-linecap="round"/></g>
<g transform="matrix(1.0, 0.0, 0.0, 1.0, 0.0, 0.0)"><path d="M 793.0,1693.125 L 793.0,1693.125 C 817.0,1693.125 829.0,1704.125 853.0,1704.125 L 1127.0,1704.125 " stroke="#E0696E" fill="none" stroke-width="5.0" stroke-dasharray="" stroke-dashoffset="0.0" stroke-linecap="round"/></g>
<g transform="matrix(1.0, 0.0, 0.0, 1.0, 0.0, 0.0)"><path d="M 833.0,613.125 L 833.0,613.125 C 857.0,613.125 869.0,613.125 893.0,613.125 L 1143.0,613.125 " stroke="#8FC2E8" fill="none" stroke-width="5.0" stroke-dasharray="" stroke-dashoffset="0.0" stroke-linecap="round"/></g>
<g transform="matrix(1.0, 0.0, 0.0, 1.0, 0.0, 0.0)"><path d="M 572.0,1115.625 L 572.0,1175.125 C 572.0,1180.647847498 567.5228474979999,1185.125 562.0,1185.125 L 140.0,1185.125 C 134.47715250200008,1185.125 130.0,1180.647847498 130.0,1175.125 L 130.0,1056.125 C 130.0,1050.602152502 134.47715250200008,1046.125 140.0,1046.125 L 562.0,1046.125 C 567.5228474979999,1046.125 572.0,1050.602152502 572.0,1056.125 Z " stroke="none" fill="#F2F2F5"/><path d="M 572.0,1115.625 L 572.0,1175.125 C 572.0,1180.647847498 567.5228474979999,1185.125 562.0,1185.125 L 140.0,1185.125 C 134.47715250200008,1185.125 130.0,1180.647847498 130.0,1175.125 L 130.0,1056.125 C 130.0,1050.602152502 134.47715250200008,1046.125 140.0,1046.125 L 562.0,1046.125 C 567.5228474979999,1046.125 572.0,1050.602152502 572.0,1056.125 Z " stroke="#F2F2F5" fill="none" stroke-width="7.0" stroke-dasharray="" stroke-dashoffset="0.0" stroke-linecap="round" stroke-linejoin="round"/></g>
<g transform="matrix(1.0, 0.0, 0.0, 1.0, 0.0, 0.0)"><g transform="translate(149.0 1082.20546875)"><text fill="#4B4B4B" x="7.55859375" y="0.0" font-family="Helvetica" font-size="24.0">Public Verifiable Voting System (v1.2) </text><text fill="#4B4B4B" x="150.966796875" y="27.6" font-family="Helvetica" font-size="24.0">Core Idea:
</text><text fill="#4B4B4B" x="58.927734375" y="55.2" font-family="Helvetica" font-size="24.0">A voter can verify their vote,
</text><text fill="#4B4B4B" x="54.908203125" y="82.80000000000001" font-family="Helvetica" font-size="24.0">but cannot prove it to others.</text></g></g>
<g transform="matrix(1.0, 0.0, 0.0, 1.0, 0.0, 0.0)"><g transform="translate(639.0 277.525390625)"><text fill="#F3F3F3" x="5.0" y="0.0" font-family="Helvetica" font-size="20.0">voting</text></g></g>
<g transform="matrix(1.0, 0.0, 0.0, 1.0, 0.0, 0.0)"><g transform="translate(767.0 150.525390625)"><text fill="#F3F3F3" x="5.0" y="0.0" font-family="Helvetica" font-size="20.0">Voter selects choice</text></g></g>
<g transform="matrix(1.0, 0.0, 0.0, 1.0, 0.0, 0.0)"><g transform="translate(767.0 201.525390625)"><text fill="#F3F3F3" x="5.0" y="0.0" font-family="Helvetica" font-size="20.0">Vote encrypted locally</text></g></g>
<g transform="matrix(1.0, 0.0, 0.0, 1.0, 0.0, 0.0)"><g transform="translate(767.0 252.23046875)"><text fill="#F3F3F3" x="5.0" y="0.0" font-family="ArialMT" font-size="20.0">Ballot validity proven by ZKP</text></g></g>
<g transform="matrix(1.0, 0.0, 0.0, 1.0, 0.0, 0.0)"><g transform="translate(767.0 303.525390625)"><text fill="#F3F3F3" x="5.0" y="0.0" font-family="Helvetica" font-size="20.0">Ballot submitted</text></g></g>
<g transform="matrix(1.0, 0.0, 0.0, 1.0, 0.0, 0.0)"><g transform="translate(767.0 354.23046875)"><text fill="#F3F3F3" x="5.0" y="0.0" font-family="ArialMT" font-size="20.0">Included in sealed block</text></g></g>
<g transform="matrix(1.0, 0.0, 0.0, 1.0, 0.0, 0.0)"><g transform="translate(767.0 405.525390625)"><text fill="#F3F3F3" x="5.0" y="0.0" font-family="Helvetica" font-size="20.0">Vote becomes final</text></g></g>
<g transform="matrix(1.0, 0.0, 0.0, 1.0, 0.0, 0.0)"><g transform="translate(639.0 606.525390625)"><text fill="#F3F3F3" x="5.0" y="0.0" font-family="Helvetica" font-size="20.0">Public Ledger &amp; Tally</text></g></g>
<g transform="matrix(1.0, 0.0, 0.0, 1.0, 0.0, 0.0)"><g transform="translate(900.0 458.23046875)"><text fill="#F3F3F3" x="5.0" y="0.0" font-family="ArialMT" font-size="20.0">Encrypted ballots are published </text><text fill="#F3F3F3" x="5.0" y="22.998046875" font-family="ArialMT" font-size="20.0">publicly</text></g></g>
<g transform="matrix(1.0, 0.0, 0.0, 1.0, 0.0, 0.0)"><g transform="translate(900.0 532.23046875)"><text fill="#F3F3F3" x="5.0" y="0.0" font-family="ArialMT" font-size="20.0">Anyone can verify ballot validity </text><text fill="#F3F3F3" x="5.0" y="22.998046875" font-family="ArialMT" font-size="20.0">proofs</text></g></g>
<g transform="matrix(1.0, 0.0, 0.0, 1.0, 0.0, 0.0)"><g transform="translate(900.0 606.525390625)"><text fill="#F3F3F3" x="5.0" y="0.0" font-family="Helvetica" font-size="20.0">Homomorphic aggregation</text></g></g>
<g transform="matrix(1.0, 0.0, 0.0, 1.0, 0.0, 0.0)"><g transform="translate(900.0 657.525390625)"><text fill="#F3F3F3" x="5.0" y="0.0" font-family="Helvetica" font-size="20.0">No individual vote decrypted</text></g></g>
<g transform="matrix(1.0, 0.0, 0.0, 1.0, 0.0, 0.0)"><g transform="translate(900.0 708.525390625)"><text fill="#F3F3F3" x="5.0" y="0.0" font-family="Helvetica" font-size="20.0">Final result via 7-of-10 threshold </text><text fill="#F3F3F3" x="5.0" y="23.0" font-family="Helvetica" font-size="20.0">decryption</text></g></g>
<g transform="matrix(1.0, 0.0, 0.0, 1.0, 0.0, 0.0)"><g transform="translate(639.0 864.525390625)"><text fill="#F3F3F3" x="5.0" y="0.0" font-family="Helvetica" font-size="20.0">Vérification (Post-Election)</text></g></g>
<g transform="matrix(1.0, 0.0, 0.0, 1.0, 0.0, 0.0)"><g transform="translate(949.0 785.525390625)"><text fill="#F3F3F3" x="5.0" y="0.0" font-family="Helvetica" font-size="20.0">Device authorizes verification</text></g></g>
<g transform="matrix(1.0, 0.0, 0.0, 1.0, 0.0, 0.0)"><g transform="translate(949.0 943.525390625)"><text fill="#F3F3F3" x="5.0" y="0.0" font-family="Helvetica-Bold" font-size="20.0">No ballot revealed on device</text></g></g>
<g transform="matrix(1.0, 0.0, 0.0, 1.0, 0.0, 0.0)"><g transform="translate(1294.0 836.525390625)"><text fill="#F3F3F3" x="5.0" y="0.0" font-family="Helvetica" font-size="20.0">Certified verification location</text></g></g>
<g transform="matrix(1.0, 0.0, 0.0, 1.0, 0.0, 0.0)"><g transform="translate(1294.0 887.525390625)"><text fill="#F3F3F3" x="5.0" y="0.0" font-family="Helvetica" font-size="20.0">Airlock (ballot selection)</text></g></g>
<g transform="matrix(1.0, 0.0, 0.0, 1.0, 0.0, 0.0)"><g transform="translate(1294.0 1051.525390625)"><text fill="#F3F3F3" x="5.0" y="0.0" font-family="Helvetica" font-size="20.0">Reveal capsule</text></g></g>
<g transform="matrix(1.0, 0.0, 0.0, 1.0, 0.0, 0.0)"><g transform="translate(1505.0 938.23046875)"><text fill="#F3F3F3" x="5.0" y="0.0" font-family="ArialMT" font-size="20.0">Single-use reveal session</text></g></g>
<g transform="matrix(1.0, 0.0, 0.0, 1.0, 0.0, 0.0)"><g transform="translate(1505.0 989.525390625)"><text fill="#F3F3F3" x="5.0" y="0.0" font-family="Helvetica" font-size="20.0">Ballot shown briefly</text></g></g>
<g transform="matrix(1.0, 0.0, 0.0, 1.0, 0.0, 0.0)"><g transform="translate(1505.0 1040.525390625)"><text fill="#F3F3F3" x="5.0" y="0.0" font-family="Helvetica" font-size="20.0">Automatic clearing</text></g></g>
<g transform="matrix(1.0, 0.0, 0.0, 1.0, 0.0, 0.0)"><g transform="translate(1505.0 1091.525390625)"><text fill="#F3F3F3" x="5.0" y="0.0" font-family="Helvetica" font-size="20.0">Stateless unit</text></g></g>
<g transform="matrix(1.0, 0.0, 0.0, 1.0, 0.0, 0.0)"><g transform="translate(1505.0 1142.525390625)"><text fill="#F3F3F3" x="5.0" y="0.0" font-family="Helvetica" font-size="20.0">Right consumed after </text><text fill="#F3F3F3" x="5.0" y="23.0" font-family="Helvetica" font-size="20.0">successful display</text></g></g>
<g transform="matrix(1.0, 0.0, 0.0, 1.0, 0.0, 0.0)"><g transform="translate(639.0 1369.525390625)"><text fill="#F3F3F3" x="5.0" y="0.0" font-family="Helvetica" font-size="20.0">Security Model</text></g></g>
<g transform="matrix(1.0, 0.0, 0.0, 1.0, 0.0, 0.0)"><g transform="translate(846.0 1218.525390625)"><text fill="#F3F3F3" x="5.0" y="0.0" font-family="Helvetica" font-size="20.0">Device-bound verification right</text></g></g>
<g transform="matrix(1.0, 0.0, 0.0, 1.0, 0.0, 0.0)"><g transform="translate(846.0 1269.23046875)"><text fill="#F3F3F3" x="5.0" y="0.0" font-family="ArialMT" font-size="20.0">Verification right: non-</text><text fill="#F3F3F3" x="5.0" y="22.998046875" font-family="ArialMT" font-size="20.0">exportable / non-recoverable</text></g></g>
<g transform="matrix(1.0, 0.0, 0.0, 1.0, 0.0, 0.0)"><g transform="translate(846.0 1343.525390625)"><text fill="#F3F3F3" x="5.0" y="0.0" font-family="Helvetica" font-size="20.0">Stateless reveal infrastructure</text></g></g>
<g transform="matrix(1.0, 0.0, 0.0, 1.0, 0.0, 0.0)"><g transform="translate(846.0 1394.23046875)"><text fill="#F3F3F3" x="5.0" y="0.0" font-family="ArialMT" font-size="20.0">Terminal attestation + backend </text><text fill="#F3F3F3" x="5.0" y="22.998046875" font-family="ArialMT" font-size="20.0">validation</text></g></g>
<g transform="matrix(1.0, 0.0, 0.0, 1.0, 0.0, 0.0)"><g transform="translate(846.0 1468.525390625)"><text fill="#F3F3F3" x="5.0" y="0.0" font-family="Helvetica" font-size="20.0">Minimal logging</text></g></g>
<g transform="matrix(1.0, 0.0, 0.0, 1.0, 0.0, 0.0)"><g transform="translate(846.0 1519.525390625)"><text fill="#F3F3F3" x="5.0" y="0.0" font-family="Helvetica" font-size="20.0">No single point of trust</text></g></g>
<g transform="matrix(1.0, 0.0, 0.0, 1.0, 0.0, 0.0)"><g transform="translate(639.0 1686.525390625)"><text fill="#F3F3F3" x="5.0" y="0.0" font-family="Helvetica" font-size="20.0">Key Constraints </text></g></g>
<g transform="matrix(1.0, 0.0, 0.0, 1.0, 0.0, 0.0)"><g transform="translate(860.0 1572.525390625)"><text fill="#F3F3F3" x="5.0" y="0.0" font-family="Helvetica" font-size="20.0">No transferable proof of vote</text></g></g>
<g transform="matrix(1.0, 0.0, 0.0, 1.0, 0.0, 0.0)"><g transform="translate(860.0 1623.525390625)"><text fill="#F3F3F3" x="5.0" y="0.0" font-family="Helvetica" font-size="20.0">No identity ↔ vote linkage</text></g></g>
<g transform="matrix(1.0, 0.0, 0.0, 1.0, 0.0, 0.0)"><g transform="translate(860.0 1674.525390625)"><text fill="#F3F3F3" x="5.0" y="0.0" font-family="Helvetica" font-size="20.0">Verification only in controlled </text><text fill="#F3F3F3" x="5.0" y="23.0" font-family="Helvetica" font-size="20.0">environment</text></g></g>
<g transform="matrix(1.0, 0.0, 0.0, 1.0, 0.0, 0.0)"><g transform="translate(860.0 1748.525390625)"><text fill="#F3F3F3" x="5.0" y="0.0" font-family="Helvetica" font-size="20.0">Single-use verification</text></g></g>
<g transform="matrix(1.0, 0.0, 0.0, 1.0, 0.0, 0.0)"><g transform="translate(860.0 1799.525390625)"><text fill="#F3F3F3" x="5.0" y="0.0" font-family="Helvetica" font-size="20.0">Verification expires after 1 year</text></g></g>
<g transform="matrix(1.0, 0.0, 0.0, 1.0, 0.0, 0.0)"><g transform="translate(639.0 1940.525390625)"><text fill="#F3F3F3" x="5.0" y="0.0" font-family="Helvetica" font-size="20.0">Why This Matters</text></g></g>
<g transform="matrix(1.0, 0.0, 0.0, 1.0, 0.0, 0.0)"><g transform="translate(869.0 1878.525390625)"><text fill="#F3F3F3" x="5.0" y="0.0" font-family="Helvetica" font-size="20.0">Traditional systems:</text></g></g>
<g transform="matrix(1.0, 0.0, 0.0, 1.0, 0.0, 0.0)"><g transform="translate(1121.0 1860.125)"><text fill="#F3F3F3" x="5.0" y="0.0" font-family="Helvetica" font-size="20.0">Verifiable → coercion risk</text></g></g>
<g transform="matrix(1.0, 0.0, 0.0, 1.0, 0.0, 0.0)"><g transform="translate(1121.0 1911.125)"><text fill="#F3F3F3" x="5.0" y="0.0" font-family="Helvetica" font-size="20.0">Private → no auditability</text></g></g>
<g transform="matrix(1.0, 0.0, 0.0, 1.0, 0.0, 0.0)"><g transform="translate(869.0 1955.23046875)"><text fill="#F3F3F3" x="5.0" y="0.0" font-family="ArialMT" font-size="20.0">Addresses the trade-off </text><text fill="#F3F3F3" x="5.0" y="22.998046875" font-family="ArialMT" font-size="20.0">between auditability and </text><text fill="#F3F3F3" x="5.0" y="45.99609375" font-family="ArialMT" font-size="20.0">coercion resistance</text></g></g>
<g transform="matrix(1.0, 0.0, 0.0, 1.0, 0.0, 0.0)"/>
</svg>
